<!-- Generated by IcoMoon.io -->
<svg version="1.1" xmlns="http://www.w3.org/2000/svg" width="73" height="73" viewBox="0 0 73 73">
<title>gift</title>
<path d="M55.001 22.813c1.292-0.918 2.532-1.94 3.667-3.076 2.381-2.381 3.974-5.311 4.485-8.25 0.56-3.221-0.262-6.212-2.255-8.205-1.59-1.59-3.743-2.43-6.228-2.43-3.538 0-7.266 1.698-10.227 4.66-4.739 4.739-7.501 11.281-8.988 15.949-1.101-4.691-3.294-11.024-7.558-15.289-2.288-2.288-5.212-3.463-7.973-3.463-2.257 0-4.404 0.784-6.007 2.387-3.563 3.564-3.082 9.823 1.075 13.98 1.482 1.482 3.215 2.713 5.042 3.736h-15.471v18.25h4.562v31.938h54.75v-31.938h4.562v-18.25h-13.437zM48.072 9.141c1.976-1.976 4.443-3.156 6.598-3.156 0.763 0 1.833 0.161 2.598 0.927 1.856 1.856 0.814 6.153-2.23 9.196-3.133 3.133-7.347 5.287-11.009 6.705h-3.612c1.324-4.103 3.711-9.728 7.655-13.672zM16.677 11.47c-0.050-0.65-0.004-1.871 0.869-2.744 0.73-0.73 1.696-0.884 2.377-0.884v0c1.515 0 3.099 0.714 4.344 1.959 2.415 2.415 4.403 6.257 5.751 11.112 0.036 0.131 0.072 0.262 0.107 0.391-0.129-0.035-0.26-0.070-0.391-0.107-4.855-1.348-8.697-3.336-11.112-5.751-1.128-1.128-1.837-2.578-1.945-3.977zM31.938 68.438h-18.25v-29.656h18.25v29.656zM31.938 36.5h-22.813v-9.125h22.813v9.125zM59.313 68.438h-18.25v-29.656h18.25v29.656zM63.875 36.5h-22.813v-9.125h22.813v9.125z"></path>
</svg>
