<!-- Generated by IcoMoon.io -->
<svg version="1.1" xmlns="http://www.w3.org/2000/svg" width="73" height="73" viewBox="0 0 73 73">
<title>heart</title>
<path d="M61.238 16.173c2.677 2.68 4.012 6.178 4.012 9.685s-1.338 7.005-4.012 9.679l-24.738 24.738-24.738-24.738c-2.674-2.674-4.009-6.172-4.009-9.682s1.335-7.008 4.009-9.682 6.172-4.009 9.682-4.009 7.008 1.335 9.682 4.009l3.224 3.224c1.189 1.189 3.115 1.189 4.301 0l3.23-3.23c2.674-2.674 6.172-4.009 9.679-4.006s7.005 1.338 9.679 4.012zM65.539 11.872c-3.86-3.86-8.924-5.791-13.98-5.794s-10.12 1.928-13.983 5.788l-1.077 1.080-1.074-1.074c-3.86-3.86-8.927-5.791-13.983-5.791s-10.123 1.931-13.983 5.791-5.791 8.927-5.791 13.983 1.931 10.123 5.791 13.983l26.888 26.888c1.189 1.189 3.115 1.189 4.301 0l26.888-26.888c3.86-3.86 5.791-8.924 5.794-13.979s-1.928-10.12-5.794-13.986z"></path>
</svg>
