<!-- Generated by IcoMoon.io -->
<svg version="1.1" xmlns="http://www.w3.org/2000/svg" width="73" height="73" viewBox="0 0 73 73">
<title>locked</title>
<path d="M66.156 73h-59.313c-1.259 0-2.281-1.020-2.281-2.281v-36.5c0-1.262 1.022-2.281 2.281-2.281h6.844v-9.125c0-12.599 10.213-22.813 22.813-22.813s22.813 10.213 22.813 22.813v9.125h6.844c1.262 0 2.281 1.020 2.281 2.281v36.5c0 1.262-1.020 2.281-2.281 2.281zM50.188 21.672c0-6.93-6.13-12.547-13.688-12.547s-13.688 5.616-13.688 12.547v10.266h27.375v-10.266z"></path>
</svg>
